<svg version="1.1" viewBox="0.0 0.0 847.2572178477691 231.9028871391076" fill="none" stroke="none" stroke-linecap="square" stroke-miterlimit="10" xmlns:xlink="http://www.w3.org/1999/xlink" xmlns="http://www.w3.org/2000/svg"><clipPath id="p.0"><path d="m0 0l847.2572 0l0 231.9029l-847.2572 0l0 -231.9029z" clip-rule="nonzero"/></clipPath><g clip-path="url(#p.0)"><path fill="#000000" fill-opacity="0.0" d="m0 0l847.2572 0l0 231.9029l-847.2572 0z" fill-rule="evenodd"/><path fill="#000000" fill-opacity="0.0" d="m191.10892 0l467.3701 0l0 180.62993l-467.3701 0z" fill-rule="evenodd"/><path fill="#1155cc" d="m207.28079 39.848755l74.234375 0q7.421875 0 12.671875 5.25q5.25 5.25 5.25 12.546875l0 24.828125q0 7.296875 -5.25 12.546875q-5.25 5.25 -12.671875 5.25l-56.953125 0.125l-0.390625 -0.125l0 31.609375l-16.890625 0l0 -92.03125zm75.125 42.625l0 -24.828125q0 -0.90625 -0.890625 -0.90625l-56.453125 0q-0.890625 0 -0.890625 0.90625l0 24.828125q0 0.890625 0.890625 0.890625l56.453125 0q0.890625 0 0.890625 -0.890625z" fill-rule="nonzero"/><path fill="#ff0000" d="m365.74756 57.64563q7.296875 0 12.46875 5.1875q5.1875 5.171875 5.1875 12.46875l0 56.578125l-57.734375 0q-7.28125 0 -12.46875 -5.1875q-5.1875 -5.1875 -5.1875 -12.46875l0 -27.90625l58.625 0l0 -11.015625q0 -0.890625 -0.890625 -0.890625l-57.734375 0l0 -16.765625l57.734375 0zm0.890625 57.46875l0 -11.90625l-41.859375 0l0 11.015625q0 0.890625 0.890625 0.890625l40.96875 0zm88.191376 -57.46875q7.296875 0 12.46875 5.1875q5.1875 5.171875 5.1875 12.46875l0 56.578125l-16.765625 0l0 -56.578125q0 -0.890625 -0.890625 -0.890625l-40.06247 0q-0.890625 0 -0.890625 0.890625l0 56.578125l-16.78125 0l0 -74.234375l57.734344 0zm31.103638 74.234375l0 -74.234375l16.765625 0l0 74.234375l-16.765625 0zm0 -98.5625l16.765625 0l0 16.90625l-16.765625 0l0 -16.90625zm122.105316 24.328125q7.296875 0 12.484375 5.1875q5.1875 5.171875 5.1875 12.46875l0 56.578125l-16.640625 0l0 -56.578125q0 -0.890625 -1.03125 -0.890625l-27.890625 0q-0.78125 0 -0.78125 0.890625l0 56.578125l-16.890625 0l0 -56.578125q0 -0.890625 -0.765625 -0.890625l-28.03125 0q-0.890625 0 -0.890625 0.890625l0 56.578125l-16.78125 0l0 -74.234375l92.03125 0z" fill-rule="nonzero"/><path fill="#000000" fill-opacity="0.0" d="m223.95932 147.79265l401.66928 0l0 53.039368l-401.66928 0z" fill-rule="evenodd"/><path fill="#000000" d="m234.0062 160.5564l11.03125 0q1.28125 0 2.21875 0.921875q0.9375 0.90625 0.9375 2.203125l0 3.46875q0 1.296875 -0.9375 2.21875q-0.9375 0.921875 -2.21875 0.921875l-7.765625 -0.359375q0.4375 -0.375 0.4375 0.484375q-0.578125 0 -0.4375 -0.375l0.375 4.671875l-3.640625 0l0 -14.15625zm3.640625 3.640625l0 2.4375l6.859375 0l0 -2.4375l-6.859375 0zm22.585205 11.3125q0 1.28125 -0.90625 2.171875q-0.890625 0.90625 -2.171875 0.90625l-6.9374847 0l0 -3.625l6.4218597 0l0 -0.25l-5.0468597 0q-1.265625 0 -2.1875 -0.90625q-0.90625 -0.921875 -0.90625 -2.171875l0 -8.453125l3.609375 0l0 7.921875l4.5312347 0l0 -7.921875l3.59375 0l0 12.328125zm8.873291 -8.765625l-4.015625 0l0 4.359375l4.015625 0l0 3.609375l-4.515625 0q-1.296875 0 -2.203125 -0.90625q-0.90625 -0.921875 -0.90625 -2.171875l0 -11.703125l3.609375 0l0 3.203125l4.015625 0l0 3.609375zm9.445221 -3.609375q1.265625 0 2.171875 0.921875q0.921875 0.90625 0.921875 2.171875l0 8.484375l-3.609375 0l0 -7.96875l-4.515625 0l0 7.96875l-3.609375 0l0 -15.109375l3.609375 0l0 3.53125l5.03125 0zm6.852997 0l5.5625 0q1.265625 0 2.171875 0.921875q0.90625 0.90625 0.90625 2.171875l0 5.40625q0 1.25 -0.90625 2.171875q-0.90625 0.90625 -2.171875 0.90625l-5.5625 0q-1.25 0 -2.171875 -0.90625q-0.90625 -0.921875 -0.90625 -2.171875l0 -5.40625q0 -1.265625 0.90625 -2.171875q0.921875 -0.921875 2.171875 -0.921875zm0.53125 3.609375l0 4.359375l4.5 0l0 -4.359375l-4.5 0zm17.98825 -3.609375q1.28125 0 2.1875 0.921875q0.90625 0.90625 0.90625 2.171875l0 8.484375l-3.609375 0l0 -7.96875l-4.515625 0l0 7.96875l-3.609375 0l0 -11.578125l8.640625 0zm24.53894 1.0625l-10.5 0l0 6.859375l10.5 0l0 3.65625l-11.0 0q-1.3125 0 -2.234375 -0.90625q-0.90625 -0.921875 -0.90625 -2.234375l0 -7.90625q0 -1.3125 0.90625 -2.21875q0.921875 -0.921875 2.234375 -0.921875l11.0 0l0 3.671875zm4.179199 -1.0625l5.5625 0q1.265625 0 2.171875 0.921875q0.90625 0.90625 0.90625 2.171875l0 5.40625q0 1.25 -0.90625 2.171875q-0.90625 0.90625 -2.171875 0.90625l-5.5625 0q-1.25 0 -2.171875 -0.90625q-0.90625 -0.921875 -0.90625 -2.171875l0 -5.40625q0 -1.265625 0.90625 -2.171875q0.921875 -0.921875 2.171875 -0.921875zm0.53125 3.609375l0 4.359375l4.5 0l0 -4.359375l-4.5 0zm17.98825 -3.609375q1.28125 0 2.1875 0.921875q0.90625 0.90625 0.90625 2.171875l0 8.484375l-3.609375 0l0 -7.96875l-4.515625 0l0 7.96875l-3.609375 0l0 -11.578125l8.640625 0zm15.984741 3.09375l0 0.90625l-3.625 0l0 -0.390625l-4.515625 0l0 0.375l5.03125 0q1.296875 0 2.203125 0.90625q0.90625 0.890625 0.90625 2.171875l0 1.4375q0 1.25 -0.90625 2.171875q-0.90625 0.90625 -2.203125 0.90625l-5.5625 0q-1.25 0 -2.171875 -0.90625q-0.90625 -0.921875 -0.90625 -2.171875l0 -0.921875l3.609375 0l0 0.390625l4.515625 0l0 -0.359375l-5.046875 0q-1.25 0 -2.171875 -0.90625q-0.90625 -0.921875 -0.90625 -2.171875l0 -1.4375q0 -1.265625 0.90625 -2.171875q0.921875 -0.921875 2.171875 -0.921875l5.5625 0q1.296875 0 2.203125 0.921875q0.90625 0.90625 0.90625 2.171875zm4.1888123 -3.09375l5.5625 0q1.265625 0 2.171875 0.921875q0.90625 0.90625 0.90625 2.171875l0 5.40625q0 1.25 -0.90625 2.171875q-0.90625 0.90625 -2.171875 0.90625l-5.5625 0q-1.25 0 -2.171875 -0.90625q-0.90625 -0.921875 -0.90625 -2.171875l0 -5.40625q0 -1.265625 0.90625 -2.171875q0.921875 -0.921875 2.171875 -0.921875zm0.53125 3.609375l0 4.359375l4.5 0l0 -4.359375l-4.5 0zm9.316376 -7.171875l3.625 0l0 11.53125l2.1875 0l0 3.609375l-2.734375 0q-1.25 0 -2.171875 -0.90625q-0.90625 -0.921875 -0.90625 -2.171875l0 -12.0625zm14.91217 3.5625q1.265625 0 2.171875 0.921875q0.90625 0.90625 0.90625 2.171875l0 4.515625l-8.109375 0l0 0.359375l8.109375 0l0 3.609375l-8.640625 0q-1.25 0 -2.171875 -0.90625q-0.90625 -0.921875 -0.90625 -2.171875l0 -5.40625q0 -1.265625 0.90625 -2.171875q0.921875 -0.921875 2.171875 -0.921875l5.5625 0zm-5.03125 4.359375l4.5 0l0 -0.75l-4.5 0l0 0.75zm18.57367 -6.96875l7.890625 0q1.3125 0 2.234375 0.921875q0.921875 0.921875 0.921875 2.21875l0 11.046875l-3.6875 0l0 -4.328125l-6.859375 0l0 4.328125l-3.640625 0l0 -11.046875q0 -1.3125 0.90625 -2.21875q0.921875 -0.921875 2.234375 -0.921875zm0.5 6.203125l6.859375 0l0 -2.53125l-6.859375 0l0 2.53125zm20.518524 -3.59375q1.28125 0 2.1875 0.921875q0.90625 0.90625 0.90625 2.171875l0 8.484375l-3.609375 0l0 -7.96875l-4.515625 0l0 7.96875l-3.609375 0l0 -11.578125l8.640625 0zm4.312866 11.578125l0 -11.578125l3.609375 0l0 11.578125l-3.609375 0zm0 -15.109375l3.609375 0l0 3.609375l-3.609375 0l0 -3.609375zm17.709778 3.53125q1.28125 0 2.171875 0.921875q0.90625 0.90625 0.90625 2.171875l0 8.484375l-3.578125 0l0 -7.96875l-2.84375 0l0 7.96875l-3.625 0l0 -7.96875l-2.828125 0l0 7.96875l-3.609375 0l0 -11.578125l13.40625 0zm13.448944 0q1.28125 0 2.171875 0.921875q0.90625 0.90625 0.90625 2.171875l0 8.484375l-8.640625 0q-1.265625 0 -2.171875 -0.90625q-0.90625 -0.921875 -0.90625 -2.171875l0 -4.515625l8.109375 0l0 -0.375l-8.109375 0l0 -3.609375l8.640625 0zm-0.53125 7.96875l0 -0.734375l-4.5 0l0 0.734375l4.5 0zm12.478699 -4.359375l-4.015625 0l0 4.359375l4.015625 0l0 3.609375l-4.515625 0q-1.296875 0 -2.203125 -0.90625q-0.90625 -0.921875 -0.90625 -2.171875l0 -11.703125l3.609375 0l0 3.203125l4.015625 0l0 3.609375zm0.77334595 7.96875l0 -11.578125l3.609375 0l0 11.578125l-3.609375 0zm0 -15.109375l3.609375 0l0 3.609375l-3.609375 0l0 -3.609375zm7.334778 3.53125l5.5625 0q1.265625 0 2.171875 0.921875q0.90625 0.90625 0.90625 2.171875l0 5.40625q0 1.25 -0.90625 2.171875q-0.90625 0.90625 -2.171875 0.90625l-5.5625 0q-1.25 0 -2.171875 -0.90625q-0.90625 -0.921875 -0.90625 -2.171875l0 -5.40625q0 -1.265625 0.90625 -2.171875q0.921875 -0.921875 2.171875 -0.921875zm0.53125 3.609375l0 4.359375l4.5 0l0 -4.359375l-4.5 0zm17.98825 -3.609375q1.28125 0 2.1875 0.921875q0.90625 0.90625 0.90625 2.171875l0 8.484375l-3.609375 0l0 -7.96875l-4.515625 0l0 7.96875l-3.609375 0l0 -11.578125l8.640625 0zm10.41391 11.578125l0 -14.203125l3.640625 0l0 10.546875l10.546875 0l0 3.65625l-14.1875 0zm14.439453 0l0 -11.578125l3.609375 0l0 11.578125l-3.609375 0zm0 -15.109375l3.609375 0l0 3.609375l-3.609375 0l0 -3.609375zm12.944153 3.53125q1.28125 0 2.1875 0.921875q0.90625 0.90625 0.90625 2.171875l0 5.40625q0 1.25 -0.90625 2.171875q-0.90625 0.90625 -2.1875 0.90625l-8.640625 0l0 -15.109375l3.609375 0l0 3.53125l5.03125 0zm-5.03125 3.609375l0 4.359375l4.515625 0l0 -4.359375l-4.515625 0zm11.896851 -3.609375l6.34375 0l0 3.609375l-5.828125 0l0 7.96875l-3.609375 0l0 -8.484375q0 -1.265625 0.90625 -2.171875q0.921875 -0.921875 2.1875 -0.921875zm15.360046 0q1.28125 0 2.171875 0.921875q0.90625 0.90625 0.90625 2.171875l0 8.484375l-8.640625 0q-1.265625 0 -2.171875 -0.90625q-0.90625 -0.921875 -0.90625 -2.171875l0 -4.515625l8.109375 0l0 -0.375l-8.109375 0l0 -3.609375l8.640625 0zm-0.53125 7.96875l0 -0.734375l-4.5 0l0 0.734375l4.5 0zm7.9318237 -7.96875l6.34375 0l0 3.609375l-5.828125 0l0 7.96875l-3.609375 0l0 -8.484375q0 -1.265625 0.90625 -2.171875q0.921875 -0.921875 2.1875 -0.921875zm18.266296 12.375q0 1.28125 -0.90625 2.171875q-0.890625 0.90625 -2.171875 0.90625l-6.9375 0l0 -3.625l6.421875 0l0 -0.25l-5.046875 0q-1.265625 0 -2.1875 -0.90625q-0.90625 -0.921875 -0.90625 -2.171875l0 -8.453125l3.609375 0l0 7.921875l4.53125 0l0 -7.921875l3.59375 0l0 12.328125z" fill-rule="nonzero"/></g></svg>